<?xml version="1.0" encoding="utf-8"?>
<!-- Generator: Adobe Illustrator 18.1.0, SVG Export Plug-In . SVG Version: 6.00 Build 0)  -->
<svg version="1.1" id="Capa_1" xmlns="http://www.w3.org/2000/svg" xmlns:xlink="http://www.w3.org/1999/xlink" x="0px" y="0px"
	 width="1000px" height="1000px" viewBox="0 0 1000 1000" enable-background="new 0 0 1000 1000" xml:space="preserve">
<path d="M169.8,515.7c7.8,46.7,58.9,155.4,159.8,257.5v55.3h362.4v-55v-0.3l36.6-61.5c13.1-21.9,20-47,20-72.5c0,0,0-187.7,0-187.7
	c-0.3-16.3-19.2-32.6-45-37.6c-20.5-4-39.6,0.2-49.8,9.6c-0.3-16.3-19.1-32.6-44.9-37.7c-18.5-3.7-36-0.6-46.7,7
	c-3.2-15-21.9-29.2-46.6-34.1c-21.3-4.2-41.2-0.2-51.8,9.1l-0.1,0c0,0,0,0,0-0.1c-0.5-4.9-27.9-270.3-28-270.7
	c-5.1-46.8-81.2-40.7-81.1,5.8l-0.2,436.5c0,5.2-3.8,9.5-8.9,10.2c-0.1,0-0.1,0-0.2,0c-0.6,0.1-1.1,0.1-1.7,0.1
	c-14.7-0.4-47.8-0.9-80.1-47.6c-4.3-6.2-8.2-11.8-11.7-16.9C221.2,441,161.4,465.4,169.8,515.7z"/>
<path d="M329.8,911.7c0,11,9,20,20,20h322.5c11,0,20-9,20-20v-51.1H329.8V911.7z"/>
</svg>
