<?xml version="1.0" encoding="utf-8"?>
<!-- Generator: Adobe Illustrator 16.0.0, SVG Export Plug-In . SVG Version: 6.00 Build 0)  -->
<!DOCTYPE svg PUBLIC "-//W3C//DTD SVG 1.1//EN" "http://www.w3.org/Graphics/SVG/1.1/DTD/svg11.dtd">
<svg version="1.1" id="Layer_1" xmlns="http://www.w3.org/2000/svg" xmlns:xlink="http://www.w3.org/1999/xlink" x="0px" y="0px"
	 width="21.508px" height="24.525px" viewBox="0 0 21.508 24.525" enable-background="new 0 0 21.508 24.525" xml:space="preserve">
<g>
	<rect y="16.837" fill="#F7F7F7" width="7.689" height="7.688"/>
	<rect x="9.438" y="7.384" fill="#F7F7F7" width="7.689" height="7.689"/>
	<rect x="9.437" y="16.671" fill="#F7F7F7" width="7.69" height="7.845"/>
	<rect y="7.384" fill="#F7F7F7" width="7.689" height="7.69"/>
</g>
<g>
	<g opacity="0.4">
		<path d="M17.098,16.466c0.636-0.89,1.578-3.501,1.597-6.817l0.903-0.904l-5.92-5.921L12.78,3.723l-0.006,0.005L11.17,4.133
			c-0.571,0.144-1.095,0.442-1.512,0.859L6.593,8.058c-0.262,0.271-0.219,0.846,0.121,1.35c0.27,0.4,0.651,0.644,0.97,0.656
			c-0.261,0.271-0.22,0.845,0.118,1.349c0.241,0.363,0.578,0.599,0.877,0.649c-0.193,0.296-0.12,0.834,0.204,1.318
			c0.279,0.417,0.67,0.676,0.995,0.697l0.001,0.002c0,0,0,0-0.002,0.002c-0.072,0.088-3.96,4.872-3.965,4.879
			c-0.681,0.849,0.662,1.992,1.419,1.231l7.136-7.129c0.086-0.085,0.217-0.093,0.312-0.021c0.001,0,0.001,0,0.003,0.004
			c0.012,0.008,0.021,0.016,0.029,0.025c0.234,0.246,0.768,0.796,0.531,2.086c-0.03,0.172-0.059,0.327-0.084,0.467
			C15.039,16.846,16.415,17.426,17.098,16.466z"/>
		<path d="M20.955,7.381c0.181-0.18,0.181-0.474,0.001-0.653l-5.27-5.269c-0.18-0.181-0.475-0.18-0.654,0l-0.834,0.835l5.922,5.922
			L20.955,7.381L20.955,7.381z"/>
	</g>
	<g>
		<g>
			<path fill="#FFFFFF" d="M17.098,15.466c0.636-0.89,1.578-3.501,1.597-6.817l0.903-0.904l-5.92-5.921L12.78,2.723l-0.006,0.005
				L11.17,3.133c-0.571,0.144-1.095,0.442-1.512,0.859L6.593,7.058c-0.262,0.271-0.219,0.846,0.121,1.35
				c0.27,0.4,0.651,0.644,0.97,0.656c-0.261,0.271-0.22,0.845,0.118,1.349c0.241,0.363,0.578,0.599,0.877,0.649
				c-0.193,0.296-0.12,0.834,0.204,1.318c0.279,0.417,0.67,0.676,0.995,0.697l0.001,0.002c0,0,0,0-0.002,0.002
				c-0.072,0.088-3.96,4.872-3.965,4.879c-0.681,0.849,0.662,1.992,1.419,1.231l7.136-7.129c0.086-0.085,0.217-0.093,0.312-0.021
				c0.001,0,0.001,0,0.003,0.003c0.012,0.008,0.021,0.016,0.029,0.025c0.234,0.247,0.768,0.796,0.531,2.086
				c-0.03,0.172-0.059,0.327-0.084,0.467C15.039,15.846,16.415,16.426,17.098,15.466z"/>
			<path fill="#FFFFFF" d="M20.955,6.381c0.181-0.18,0.181-0.474,0.001-0.653l-5.27-5.269c-0.18-0.181-0.475-0.18-0.654,0
				l-0.834,0.835l5.922,5.922L20.955,6.381L20.955,6.381z"/>
		</g>
	</g>
</g>
</svg>
