<?xml version="1.0" encoding="utf-8"?>
<!-- Generator: Adobe Illustrator 16.0.0, SVG Export Plug-In . SVG Version: 6.00 Build 0)  -->
<!DOCTYPE svg PUBLIC "-//W3C//DTD SVG 1.1//EN" "http://www.w3.org/Graphics/SVG/1.1/DTD/svg11.dtd">
<svg version="1.1" id="Layer_1" xmlns="http://www.w3.org/2000/svg" xmlns:xlink="http://www.w3.org/1999/xlink" x="0px" y="0px"
	 width="21.641px" height="29.393px" viewBox="0 0 21.641 29.393" enable-background="new 0 0 21.641 29.393" xml:space="preserve">
<g>
	<path fill="#F7F7F7" d="M1.909,28.784c0,0.337,0.292,0.609,0.651,0.609h16.513c0.357,0,0.649-0.272,0.649-0.609V9.017H1.91
		L1.909,28.784L1.909,28.784z M14.474,12.381h2.438v13.3h-2.438V12.381z M9.596,12.381h2.438v13.3H9.596V12.381z M4.717,12.381
		h2.439v13.3H4.717V12.381z"/>
	<path fill="#F7F7F7" d="M16.298,2.916V0.635c0-0.35-0.292-0.635-0.651-0.635H5.983c-0.36,0-0.651,0.285-0.651,0.635v2.281v0.396
		v0.397H0.787c-0.36,0-0.651,0.284-0.651,0.634v1.604c0,0.351,0.291,0.635,0.651,0.635h1.122h17.812h1.123
		c0.359,0,0.65-0.284,0.65-0.635V4.342c0-0.35-0.291-0.634-0.65-0.634h-4.546V3.311V2.916z M13.857,3.577H7.772V3.311V2.916V2.378
		h6.085v0.537v0.396V3.577z"/>
</g>
</svg>
