<?xml version="1.0" encoding="utf-8"?>
<!-- Generator: Adobe Illustrator 16.0.0, SVG Export Plug-In . SVG Version: 6.00 Build 0)  -->
<!DOCTYPE svg PUBLIC "-//W3C//DTD SVG 1.1//EN" "http://www.w3.org/Graphics/SVG/1.1/DTD/svg11.dtd">
<svg version="1.1" id="Layer_1" xmlns="http://www.w3.org/2000/svg" xmlns:xlink="http://www.w3.org/1999/xlink" x="0px" y="0px"
	 width="19.742px" height="29.468px" viewBox="0 0 19.742 29.468" enable-background="new 0 0 19.742 29.468" xml:space="preserve">
<g>
	<path fill="#F7F7F7" d="M0.12,15.289c0.264,1.582,1.996,5.269,5.417,8.729v1.875h12.286v-1.864v-0.011l1.242-2.085
		c0.444-0.742,0.678-1.594,0.678-2.459v-6.363c-0.01-0.552-0.65-1.105-1.525-1.275c-0.695-0.135-1.344,0.007-1.688,0.326
		c-0.011-0.552-0.648-1.105-1.522-1.278c-0.627-0.126-1.22-0.021-1.584,0.237c-0.106-0.508-0.742-0.99-1.579-1.156
		c-0.723-0.143-1.396-0.006-1.756,0.309h-0.003c0,0,0,0,0-0.004c-0.017-0.166-0.946-9.164-0.949-9.177
		c-0.173-1.587-2.753-1.38-2.749,0.196L6.379,16.088c0,0.177-0.128,0.321-0.301,0.345c-0.002,0-0.002,0-0.007,0
		c-0.02,0.004-0.037,0.004-0.057,0.004c-0.499-0.014-1.621-0.031-2.716-1.613c-0.146-0.211-0.278-0.4-0.396-0.573
		C1.862,12.756-0.166,13.583,0.12,15.289z"/>
	<path fill="#F7F7F7" d="M5.544,28.714c0,0.373,0.305,0.679,0.678,0.679h10.933c0.375,0,0.68-0.306,0.68-0.679v-1.732H5.544V28.714
		L5.544,28.714z"/>
</g>
</svg>
